<?xml version="1.0" encoding="utf-8"?>
<!-- Generator: Adobe Illustrator 17.0.0, SVG Export Plug-In . SVG Version: 6.00 Build 0)  -->
<!DOCTYPE svg PUBLIC "-//W3C//DTD SVG 1.1//EN" "http://www.w3.org/Graphics/SVG/1.1/DTD/svg11.dtd">
<svg version="1.1" id="Layer_1" xmlns="http://www.w3.org/2000/svg" xmlns:xlink="http://www.w3.org/1999/xlink" x="0px" y="0px"
	 width="19.843px" height="19.843px" viewBox="0 0 19.843 19.843" enable-background="new 0 0 19.843 19.843" xml:space="preserve">
<path d="M12.593,9.944c-2.31-2.305-4.551-4.529-6.768-6.774C5.58,2.923,5.243,2.384,5.335,2.257c0.368-0.511,0.87-0.934,1.368-1.331
	c0.076-0.06,0.44,0.14,0.597,0.295c2.737,2.717,5.458,5.449,8.192,8.17c0.384,0.382,0.41,0.711,0.015,1.105
	c-2.748,2.738-5.489,5.482-8.23,8.228c-0.366,0.367-0.688,0.329-1.06-0.009c-1.24-1.126-1.248-1.159-0.07-2.336
	C8.277,14.252,10.407,12.126,12.593,9.944z"/>
</svg>
