<?xml version="1.0" encoding="utf-8"?>
<!-- Generator: Adobe Illustrator 17.0.0, SVG Export Plug-In . SVG Version: 6.00 Build 0)  -->
<!DOCTYPE svg PUBLIC "-//W3C//DTD SVG 1.1//EN" "http://www.w3.org/Graphics/SVG/1.1/DTD/svg11.dtd">
<svg version="1.1" id="Layer_1" xmlns="http://www.w3.org/2000/svg" xmlns:xlink="http://www.w3.org/1999/xlink" x="0px" y="0px"
	 width="19.843px" height="19.843px" viewBox="0 0 19.843 19.843" enable-background="new 0 0 19.843 19.843" xml:space="preserve">
<g>
	<path d="M2.026,17.525c5.294,0,10.58,0,15.905,0c-0.088-1.278-0.489-2.441-1.153-3.514c-0.881-1.422-2.096-2.462-3.627-3.138
		c-0.233-0.103-0.417-0.105-0.656,0.019c-1.825,0.95-3.65,0.909-5.379-0.195c-1.744-1.113-2.563-2.77-2.463-4.837
		C4.78,3.205,7.044,0.989,9.688,0.88c2.762-0.114,5.149,1.824,5.55,4.496c0.229,1.525-0.14,2.888-1.068,4.109
		c-0.066,0.087-0.129,0.175-0.208,0.284c1.279,0.63,2.376,1.464,3.26,2.564c1.332,1.658,2.025,3.553,2.084,5.677
		c0.018,0.642-0.219,0.871-0.874,0.871c-5.639,0.001-11.277,0.001-16.916,0c-0.671,0-0.9-0.226-0.874-0.91
		c0.101-2.656,1.129-4.89,3.083-6.693c0.358-0.331,0.762-0.347,1.033-0.062c0.295,0.31,0.251,0.689-0.141,1.051
		c-1.487,1.374-2.365,3.058-2.592,5.074C2.021,17.394,2.026,17.449,2.026,17.525z M9.958,2.21c-2.2,0.007-3.99,1.812-3.984,4.016
		c0.007,2.199,1.813,3.991,4.015,3.984c2.198-0.007,3.992-1.815,3.985-4.016C13.967,3.995,12.16,2.203,9.958,2.21z"/>
</g>
</svg>
