<?xml version="1.0" encoding="utf-8"?>
<!-- Generator: Adobe Illustrator 17.0.0, SVG Export Plug-In . SVG Version: 6.00 Build 0)  -->
<!DOCTYPE svg PUBLIC "-//W3C//DTD SVG 1.1//EN" "http://www.w3.org/Graphics/SVG/1.1/DTD/svg11.dtd">
<svg version="1.1" id="Layer_1" xmlns="http://www.w3.org/2000/svg" xmlns:xlink="http://www.w3.org/1999/xlink" x="0px" y="0px"
	 width="19.843px" height="19.843px" viewBox="0 0 19.843 19.843" enable-background="new 0 0 19.843 19.843" xml:space="preserve">
<g>
	<path d="M18.759,3.794H1.176c-0.39,0-0.706-0.316-0.706-0.706s0.316-0.706,0.706-0.706h17.583c0.39,0,0.706,0.316,0.706,0.706
		S19.149,3.794,18.759,3.794z"/>
</g>
<g>
	<path d="M18.759,10.669H1.176c-0.39,0-0.706-0.315-0.706-0.706s0.316-0.706,0.706-0.706h17.583c0.39,0,0.706,0.316,0.706,0.706
		S19.149,10.669,18.759,10.669z"/>
</g>
<g>
	<path d="M18.759,17.545H1.176c-0.39,0-0.706-0.316-0.706-0.706s0.316-0.706,0.706-0.706h17.583c0.39,0,0.706,0.316,0.706,0.706
		S19.149,17.545,18.759,17.545z"/>
</g>
</svg>
