<?xml version="1.0" encoding="utf-8"?>
<!-- Generator: Adobe Illustrator 17.0.0, SVG Export Plug-In . SVG Version: 6.00 Build 0)  -->
<!DOCTYPE svg PUBLIC "-//W3C//DTD SVG 1.1//EN" "http://www.w3.org/Graphics/SVG/1.1/DTD/svg11.dtd">
<svg version="1.1" id="Layer_1" xmlns="http://www.w3.org/2000/svg" xmlns:xlink="http://www.w3.org/1999/xlink" x="0px" y="0px"
	 width="19.843px" height="19.843px" viewBox="0 0 19.843 19.843" enable-background="new 0 0 19.843 19.843" xml:space="preserve">
<g>
	<path d="M19.842,9.892c0,2.505,0,5.01,0,7.515c0,1.468-0.968,2.434-2.437,2.434c-3.105,0-6.21,0-9.315,0
		c-1.391,0-2.378-0.988-2.38-2.384c-0.001-1.332-0.002-2.664,0.001-3.996c0.001-0.421,0.268-0.711,0.649-0.719
		c0.402-0.009,0.681,0.274,0.682,0.706c0.002,1.296,0.001,2.593,0.001,3.89c0,0.801,0.366,1.172,1.158,1.172
		c3.061,0,6.122,0,9.183,0c0.738,0,1.128-0.386,1.128-1.121c0.001-4.984-0.003-9.968,0.005-14.952
		c0.001-0.62-0.378-1.136-1.127-1.13C14.292,1.329,11.196,1.316,8.1,1.316c-0.655,0-1.054,0.39-1.057,1.051
		C7.037,3.681,7.041,4.996,7.041,6.31c0,0.471-0.247,0.761-0.648,0.767C5.982,7.083,5.71,6.78,5.709,6.31
		c-0.001-1.332-0.003-2.664,0-3.996C5.713,0.971,6.71-0.017,8.055-0.017c3.149,0,6.298,0,9.448,0c1.34,0,2.336,0.993,2.337,2.34
		C19.844,4.847,19.842,7.369,19.842,9.892z"/>
	<path d="M13.187,9.247c-0.86-0.859-1.658-1.655-2.456-2.453c-0.068-0.068-0.141-0.134-0.202-0.209
		c-0.226-0.278-0.202-0.667,0.053-0.91c0.249-0.239,0.646-0.242,0.912-0.007c0.033,0.029,0.063,0.061,0.094,0.092
		c1.203,1.203,2.407,2.406,3.61,3.61c0.362,0.362,0.362,0.716-0.002,1.081c-1.203,1.204-2.406,2.408-3.61,3.61
		c-0.328,0.327-0.719,0.356-1.007,0.08c-0.295-0.283-0.271-0.689,0.064-1.025c0.767-0.768,1.534-1.534,2.301-2.302
		c0.061-0.061,0.12-0.125,0.224-0.235c-0.15,0-0.249,0-0.35,0c-4.021,0-8.043,0-12.064,0c-0.504,0-0.798-0.278-0.771-0.724
		c0.02-0.325,0.266-0.578,0.591-0.604C0.663,9.244,0.752,9.247,0.84,9.247c3.995,0,7.99,0,11.984,0
		C12.918,9.247,13.012,9.247,13.187,9.247z"/>
</g>
</svg>
