<?xml version="1.0" encoding="utf-8"?>
<!-- Generator: Adobe Illustrator 17.0.0, SVG Export Plug-In . SVG Version: 6.00 Build 0)  -->
<!DOCTYPE svg PUBLIC "-//W3C//DTD SVG 1.1//EN" "http://www.w3.org/Graphics/SVG/1.1/DTD/svg11.dtd">
<svg version="1.1" id="Layer_1" xmlns="http://www.w3.org/2000/svg" xmlns:xlink="http://www.w3.org/1999/xlink" x="0px" y="0px"
	 width="510.24px" height="510.24px" viewBox="0 0 510.24 510.24" enable-background="new 0 0 510.24 510.24" xml:space="preserve">
<g>
	<path d="M485.903,39.012c0-4.802-2.905-9.668-3.496-14.338c-1.024-8.12-2.92-15.929-5.535-23.451H370.725
		c0.061,1.016,0.125,2.033,0.222,3.06c0.724,7.696,3.527,14.733,9.513,20.128c8.55,7.629,19.062,8.681,29.783,8.222
		c5.723-0.262,11.504-0.79,17.292-1.448c5.657-0.723,11.442-1.775,17.296-1.38c6.841,0.46,13.483,1.446,19.073,5.919
		c2.828,2.302,4.011,3.815,4.011,6.116c0,1.185-0.329,2.565-0.921,4.342c-2.171,6.709-6.118,12.498-10.196,18.154
		c-8.683,12.036-18.351,23.218-28.743,33.808c-21.377,21.902-43.543,42.95-69.457,59.525c-0.223,0.142-0.411,0.284-0.599,0.426
		c-1.811,1.368-2.052,2.763-0.979,4.968c0.33,0.644,0.652,1.287,0.979,1.931c3.588,7.052,7.035,14.104,10.531,21.156
		c0.291,0.589,0.552,1.109,0.8,1.6c2.668,5.267,3.207,4.985,8.803,0.834c0.372-0.274,0.735-0.557,1.104-0.834
		c17.987-13.467,33.01-29.961,47.897-46.589c12.826-14.339,28.775-30.125,40.483-45.319C479.983,79.792,491,61.902,491,41.84v-0.197
		C491,40.788,485.969,39.868,485.903,39.012z"/>
	<path d="M410.359,333.431c-6.816-38.589-17.407-76.235-31.459-112.937c-7.236-19.084-16.044-37.645-24.852-56.101
		c-3.461-7.34-6.921-14.681-10.381-22.021c-9.542-20.448-19.714-40.582-29.361-61.03c-0.105-0.217-0.202-0.437-0.306-0.654
		c-0.309-0.643-0.603-1.293-0.907-1.938c-4.115-8.717-7.84-17.591-11.371-26.561c-0.839-2.622-1.258-4.718,0.21-7.34
		c8.463-14.527,16.804-29.094,25.175-43.626h-33.305c-2.079,3.328-4.194,6.631-6.367,9.89c0.503-2.417-1.956-7.448-2.314-9.89H248
		v3.151c1.666,9.24,3.808,18.391,6.478,27.469c0.335,1.14,0.628,2.094,0.907,2.907c0.699,2.04,1.297,3.097,2.157,3.243
		c1.039,0.201,2.476-0.933,4.974-3.243c0.273-0.253,0.549-0.508,0.849-0.789c7.18-6.728,12.957-14.653,18.935-22.416
		c2.263,0.99,3.622,1.115,4.382,0.689c-6.682,9.919-13.956,19.379-22.605,27.687c-5.977,5.768-12.793,10.276-20.658,12.898
		c-14.785,4.718-25.901,0.21-33.032-13.633c-2.521-4.926-4.303-10.274-5.351-15.832c-1.483-7.379-2.339-14.757-2.659-22.131h-9.289
		c-0.909,14.814,0.06,29.552,6.179,43.418c8.494,19.611,20.868,35.129,43.518,38.8c2.202,0.419,2.831,1.258,2.831,2.726
		c0,0.42-0.105,0.839-0.105,1.363c-1.992,13.108-2.307,26.216-1.887,39.533c0.419,13.213,2.517,26.111,7.131,38.589
		c3.146,8.809,7.236,16.883,12.793,24.014c0.659,0.741,1.318,1.536,1.977,2.306c-5.257-0.957-12.483-1.864-14.825-2.743
		c-0.536-0.201-1.013-0.483-1.544-0.691c-18.69-7.313-34.548-18.327-46.309-34.947c-5.566-7.845-10.424-16.103-14.646-24.688
		c-2.115-4.305-4.119-8.669-5.875-13.162c-2.181-5.581-4.029-11.209-5.708-16.862c-2.413-8.134-4.32-16.338-5.698-24.621
		c-2.09-12.585-3.053-25.345-2.751-38.314c0.093-3.913,0.294-7.847,0.607-11.797c0.613-7.768,1.641-15.405,3.064-22.924h-29.611
		c-1.58,5.024-3.062,10.105-4.474,15.239c-2.245,8.163-3.167,16.428-4.498,24.731c-1.89,11.771-2.833,23.632-3.951,35.508
		c-1.249,13.747-6.214,24.797-17.659,33.019c-14.141,10.195-28.527,19.798-43.458,28.678c-4.323,2.575-8.65,5.093-13.006,7.627
		c-1.428,0.829-2.81,1.7-4.234,2.536c-3.55,2.086-7.093,4.166-10.576,6.346c-0.64,0.404-1.131,0.797-1.697,1.194
		c-2.476,1.734-4.265,3.436-5.344,5.19c-1.619,2.618-1.751,5.386-0.415,8.668c0.753,1.865,1.931,3.884,3.58,6.153
		c0.132,0.181,0.275,0.355,0.414,0.531c0.109,0.143,0.201,0.287,0.316,0.431c2.438,2.985,4.892,5.954,7.314,8.956
		c3.978,4.933,7.927,9.89,12.004,14.74c0.486,0.579,0.831,1.117,1.084,1.642c0.373,0.795,0.446,1.551,0.216,2.331
		c-0.17,0.557-0.454,1.126-0.983,1.739c-1.301,1.509-2.397,3.2-3.744,4.664c-4.94,5.37-10.888,9.424-17.413,12.561
		c-0.017,0.008-0.024,0.021-0.041,0.029c-1.535,0.741-2.815,1.626-3.778,2.742c-0.016,0.019-0.036,0.034-0.052,0.052
		c-0.955,1.127-1.578,2.499-1.819,4.192c-0.004,0.024-0.023,0.036-0.026,0.06c-0.046,0.329-0.04,0.646-0.077,0.973
		c-0.502,4.153-0.3,8.197,1.325,11.985c0.526,1.246,1.169,2.471,2.017,3.662c1.184,1.662,2.466,3.218,3.833,4.691
		c0.396,0.428,0.849,0.803,1.261,1.214c1.122,1.118,2.246,2.234,3.496,3.239c1.809,1.454,3.929,2.663,4.972,5.316
		c-0.55,0.266-1.099,0.454-1.652,0.696c-2.648,1.137-5.226,2.259-7.719,3.456c-1.11,0.524-2.269,0.961-3.309,1.63
		c-2.85,1.906-4.954,4.066-6.396,6.345c-3.999,6.283-2.578,13.54,4.851,19.259c6.736,5.186,10.845,12.509,9.581,21.148
		c-0.426,2.874-2.638,5.891-4.361,9.025C35.334,328.058,31,334.391,31,339.463c0,0.019,0,0.113,0,0.168
		c0,0.319,0.885,0.638,0.809,0.961c-0.672,2.853-0.654,5.65-0.741,8.349c-0.328,10.043,3.635,19.023,11.578,26.966
		c1.614,1.614,3.425,3.112,5.183,4.514c0.906,0.723,1.932,1.352,2.871,2.025c0.881,0.631,1.761,1.308,2.668,1.9
		c0.357,0.233,0.752,0.43,1.113,0.658c3.427,2.163,7.005,4.115,10.694,5.899c8.098,3.927,16.542,6.839,25.103,9.392
		c7.495,2.245,15.081,4.222,22.639,6.277c3.692,1.004,7.379,2.026,11.055,3.08c7.792,2.245,15.534,4.665,23.132,7.492
		c3.973,1.483,7.913,3.068,11.795,4.818c28.909,13.034,47.444,36.057,60.368,64.018c2.389,5.17,4.415,10.431,6.258,15.736
		c0.981,2.828,1.907,5.668,2.769,8.524h80.148c0.148-9.569-0.013-19.142-0.483-28.713c-0.399-8.249-0.924-16.494-1.807-24.719
		c-2.302-20.916-5.447-41.569-9.854-62.091c-7.762-36.176-18.805-71.43-32.486-105.83c-5.049-12.635-10.678-24.987-16.542-37.227
		c-10.093-21.093-21.12-41.723-32.776-62.041c-1.086-1.893-2.43-3.697-2.476-6.026c0.095-0.091,0.184-0.186,0.276-0.278
		c0.068-0.067,0.136-0.134,0.216-0.188c1.537,0.241,2.805,1.015,4.051,1.83c0.579,0.383,1.157,0.772,1.742,1.126
		c7.878,4.579,16.133,7.046,24.647,8.185c11.688,1.576,18.64,0.547,20.8,0.326c-0.657-0.003,3.62-0.671,2.964-0.934
		c-0.062-0.028,0.041-0.055,0.241-0.081c2.601,2.88,5.45,5.593,8.653,8.041c15.31,11.64,32.612,14.366,51.068,11.325
		c3.146-0.524,3.67-1.363,2.517-4.404c-1.258-3.776-2.936-7.445-4.299-11.22c-2.517-6.606-6.082-12.584-7.445-19.609
		c0.315-0.21,0.524-0.42,0.839-0.734c1.468,2.831,2.936,5.662,4.194,8.599c7.655,17.198,14.471,34.605,20.973,52.326
		c12.689,34.919,23.07,70.467,29.781,107.169c2.831,15.52,4.928,31.145,6.292,46.874c1.049,12.374,1.783,24.747,1.573,37.121
		c-0.21,10.696-0.524,21.497-1.678,32.298c-1.782,16.044-4.299,31.983-8.284,47.712c-0.098,0.389-0.206,0.774-0.305,1.163h39.859
		c4.146-20.356,6.657-41.143,7.739-62.299c0.839-17.931,0.629-35.968-0.629-53.899C416.336,373.699,413.924,353.565,410.359,333.431
		z M315.142,172.888c-0.381-0.023-0.761-0.034-1.142-0.051c-6.424-0.294-12.761,0.173-19.097-1.312
		c-16.591-4.061-28.256-12.979-34.903-27.195c-1.419-3.035-2.622-6.297-3.581-9.821c-4.194-15.415-4.719-31.145-4.509-46.874
		c-0.001-0.314-0.001-0.629,0.104-0.943c0.21-1.992,1.153-2.936,3.565-3.251c1.499-0.214,2.971-0.495,4.421-0.847
		c2.812-0.683,5.534-1.649,8.163-3.033c2.412-1.259,3.461-0.63,4.509,1.782c13.32,28.482,28.228,56.171,41.328,84.716
		c0.307,0.67,0.627,1.334,0.932,2.005c0.629,1.259,0.734,2.622,1.153,3.985C315.666,172.364,315.351,172.574,315.142,172.888z"/>
</g>
</svg>
